<svg width="140" height="57" viewBox="0 0 140 57" fill="none" xmlns="http://www.w3.org/2000/svg">
<path fill-rule="evenodd" clip-rule="evenodd" d="M140 5.04425H109.091L95 0V3.53094L98.4751 5.54865L105.929 22.1907V29.3575L97.5714 48.6628H134.857V41.3023H109.091L114.234 29.3575H128.429V23.9631L139.975 10.9533L139.862 10.8915H140V5.04425ZM135.33 10.8915L125.301 22.1907H120.195L130.755 10.8915H135.33ZM125.972 10.8915L115.412 22.1907H114.234L112.459 18.2896L119.316 10.8915H125.972ZM109.091 10.8915H114.546L110.888 14.8386L109.091 10.8915ZM129.714 57C131.845 57 133 55.645 133 53.9734C133 52.3019 131.845 50.9469 129.714 50.9469C127.584 50.9469 126.5 52.3019 126.5 53.9734C126.5 55.645 127.584 57 129.714 57ZM106 53.9734C106 55.645 105.13 57 103 57C100.87 57 100 55.645 100 53.9734C100 52.3019 100.87 50.9469 103 50.9469C105.13 50.9469 106 52.3019 106 53.9734ZM18.4 42.704C22.752 42.704 25.312 40.592 25.312 36.816C25.312 32.976 22.56 30.672 18.208 30.672H9.37601V42.704H18.4ZM17.568 23.76C21.792 23.76 24.224 21.84 24.224 18.192C24.224 14.608 21.792 12.56 17.568 12.56H9.37601V23.76H17.568ZM25.76 27.088C30.816 27.984 34.4 32.656 34.4 37.904C34.4 45.008 28.96 50 19.68 50H0.416V5.328H18.848C28.192 5.328 33.376 10.192 33.376 16.848C33.376 22.288 30.112 25.68 25.76 27.088ZM50.501 50H41.541V5.328H51.717L65.925 38.544L80.133 5.328H90.245V50H81.285V20.944L69.317 50H62.533L50.501 20.944V50Z" fill="black"/>
</svg>
