<svg width="251" height="48" viewBox="0 0 251 48" fill="none" xmlns="http://www.w3.org/2000/svg">
<path d="M24.896 33.472C24.896 37.248 22.336 39.36 17.984 39.36H8.96V27.328H17.792C22.144 27.328 24.896 29.632 24.896 33.472ZM23.808 14.848C23.808 18.496 21.376 20.416 17.152 20.416H8.96V9.216H17.152C21.376 9.216 23.808 11.264 23.808 14.848ZM33.984 34.56C33.984 29.312 30.4 24.64 25.344 23.744C29.696 22.336 32.96 18.944 32.96 13.504C32.96 6.848 27.776 1.984 18.432 1.984H0V46.656H19.264C28.544 46.656 33.984 41.664 33.984 34.56Z" fill="black"/>
<path d="M64.805 15.872C64.805 19.904 62.565 22.528 57.573 22.528H50.085V9.408H57.573C62.565 9.408 64.805 11.904 64.805 15.872ZM41.125 1.984V46.656H50.085V29.248H54.309L64.165 46.656H74.533L63.845 28.544C71.013 26.624 74.021 21.12 74.021 15.68C74.021 8.192 68.645 1.984 57.893 1.984H41.125Z" fill="black"/>
<path d="M86.221 46.656H95.437V0H80.013V8.256H86.221V46.656Z" fill="black"/>
<path d="M134.561 1.92V32.64L114.272 1.92H105.312V46.656H114.272V16L134.561 46.656H143.52V1.92H134.561Z" fill="black"/>
<path d="M172.983 1.408C160.055 1.408 150.199 10.88 150.199 24.256C150.199 37.632 160.055 47.04 173.047 47.04C184.951 47.04 193.079 38.72 194.871 29.632V21.824H170.679V28.672H186.039C184.695 35.008 180.279 38.976 173.367 38.976C165.047 38.976 159.415 33.344 159.415 24.256C159.415 15.36 164.983 9.664 172.983 9.664C177.719 9.664 181.431 11.648 183.479 15.424H193.783C190.903 6.464 182.967 1.408 172.983 1.408Z" fill="black"/>
<path d="M201.5 46.656H210.46V17.6L222.492 46.656H229.276L241.244 17.6V46.656H250.204V1.984H240.092L225.884 35.2L211.676 1.984H201.5V46.656Z" fill="black"/>
</svg>
