<svg width="45" height="57" viewBox="0 0 45 57" fill="none" xmlns="http://www.w3.org/2000/svg">
<path fill-rule="evenodd" clip-rule="evenodd" d="M14.0914 5.04425H45V10.8915H44.8624L44.9755 10.9533L33.4286 23.9631V29.3575H19.2343L14.0914 41.3023H39.8571V48.6629H2.57143L10.9286 29.3575V22.1907L3.4751 5.54867L0 3.53097V0L14.0914 5.04425ZM30.3014 22.1907L40.3299 10.8915H35.7554L25.1953 22.1907H30.3014ZM20.4122 22.1907L30.9722 10.8915H24.3157L17.4587 18.2896L19.2343 22.1907H20.4122ZM19.5463 10.8915H14.0914L15.888 14.8386L19.5463 10.8915ZM38 53.9734C38 55.645 36.8445 57 34.7143 57C32.584 57 31.5 55.645 31.5 53.9734C31.5 52.3019 32.584 50.9469 34.7143 50.9469C36.8445 50.9469 38 52.3019 38 53.9734ZM8 57C10.1302 57 11 55.645 11 53.9734C11 52.3019 10.1302 50.9469 8 50.9469C5.86976 50.9469 5 52.3019 5 53.9734C5 55.645 5.86976 57 8 57Z" fill="black"/>
</svg>
